# xmcd
#
# Track frame offsets:
#	150
#	14167
#	28161
#	42920
#	55405
#	65611
#	80273
#	92211
#	103172
#	140781
#	157346
#	177601
#	191651
#	204047
#
# Disc length: 2971 seconds
#
# Revision: 2
# Processed by: cddbd v1.5.2PL0 Copyright (c) Steve Scherf et al.
# Submitted via: EZCDAudioConverter 2.1.7.1
#
DISCID=d30b990e
DTITLE=V/A - Rebel Music
DYEAR=2008
DGENRE=MOJO
TTITLE0=The Clash - Tommy Gun [Live From Shea Stadium]
TTITLE1=Tapper Zukie - M.P.L.A.
TTITLE2=Bob Marley -  Soul Rebel
TTITLE3=Billy Bragg - There Is Power In A Union
TTITLE4=Woody Guthrie - This Land Is Your Land
TTITLE5=The Impressions - Choice Of Colors
TTITLE6=Nina Simone -  Backlash Blues
TTITLE7=The Last Poets - When The Revolution Comes
TTITLE8=Gil Scott-Heron and Brian Jackson -  H20gate Blues
TTITLE9=Robert Wyatt - Out Of The Blue
TTITLE10=Rachid Taha - Rock El Casbah
TTITLE11=The Action 13 - More Bread To The People
TTITLE12=Dillinger - Leggo Violence
TTITLE13=The Clash - Clampdown [Live From The Lewisham Odeon]
EXTD=
EXTT0=
EXTT1=
EXTT2=
EXTT3=
EXTT4=
EXTT5=
EXTT6=
EXTT7=
EXTT8=
EXTT9=
EXTT10=
EXTT11=
EXTT12=
EXTT13=
PLAYORDER=
